<svg width="116" height="30" viewBox="0 0 116 30" fill="none" xmlns="http://www.w3.org/2000/svg">
<g clip-path="url(#clip0_3190_20658)">
<path d="M1.46045 27.3198V2.65039H21.8218V8.54758H9.66245V11.8204H19.9708V17.4705H9.66245V21.2991H22.3325V27.2889H1.46045V27.3198Z" fill="#2A47BF"/>
<path d="M26.1626 27.3198V2.65039H36.0561C38.5773 2.65039 40.4283 2.74301 41.673 2.95914C42.9176 3.17527 43.9708 3.54577 44.8963 4.03977C46.6516 5.02778 47.992 6.44806 48.8856 8.2697C49.7792 10.0913 50.226 12.3144 50.226 14.9696C50.226 17.7484 49.6835 20.1258 48.5665 22.0092C47.4814 23.9235 45.8538 25.3129 43.6836 26.2391C42.8538 26.6096 41.8006 26.8566 40.556 27.011C39.3113 27.1654 37.3007 27.258 34.5561 27.258H26.1626V27.3198ZM34.3327 21.083H36.5348C38.5773 21.083 39.9815 20.6507 40.7794 19.7553C41.5772 18.8908 41.9602 17.3162 41.9602 15.0314C41.9602 12.7466 41.5453 11.2337 40.7475 10.3075C39.9496 9.38121 38.5773 8.91808 36.6305 8.91808H34.3327V21.083Z" fill="#2A47BF"/>
<path d="M54.0891 27.3198V2.65039H62.4507V27.3198H54.0891Z" fill="#2A47BF"/>
<path d="M75.47 27.3198V18.1807L66.0872 2.65039H75.1508L79.5231 11.0485L83.9592 2.65039H92.7995L83.6401 18.1807V27.3198H75.47Z" fill="#2A47BF"/>
<path d="M88.9043 27.3198L97.8722 2.65039H106.17L115.138 27.3198H107.032L106.074 24.047H97.968L96.9786 27.3198H88.9362H88.9043ZM99.436 18.8908H104.574L102.021 10.3383L99.436 18.8908Z" fill="#2A47BF"/>
</g>
<defs>
<clipPath id="clip0_3190_20658">
<rect width="116" height="30" fill="white"/>
</clipPath>
</defs>
</svg>
