<svg width="16" height="16" viewBox="0 0 16 16" fill="none" xmlns="http://www.w3.org/2000/svg">
<path fill-rule="evenodd" clip-rule="evenodd" d="M7.98793 4.08289C8.26407 4.08289 8.48793 4.30674 8.48793 4.58289V7.21646L10.7616 5.90009C11.0005 5.76173 11.306 5.84357 11.4437 6.08288C11.5815 6.3222 11.4995 6.62836 11.2605 6.76673L8.98576 8.08375L11.2605 9.40076C11.4995 9.53913 11.5815 9.84529 11.4437 10.0846C11.306 10.3239 11.0005 10.4058 10.7616 10.2674L8.48793 8.95102V11.5846C8.48793 11.8607 8.26407 12.0846 7.98793 12.0846C7.71178 12.0846 7.48793 11.8607 7.48793 11.5846V8.95095L5.21387 10.2676C4.9749 10.4059 4.66947 10.3241 4.53169 10.0848C4.39391 9.84546 4.47595 9.5393 4.71493 9.40094L6.98997 8.08374L4.71493 6.76655C4.47595 6.62819 4.39391 6.32203 4.53169 6.08271C4.66947 5.8434 4.9749 5.76156 5.21387 5.89992L7.48793 7.21654V4.58289C7.48793 4.30674 7.71178 4.08289 7.98793 4.08289Z" fill="#2A47BF"/>
</svg>
